<svg width="205" height="44" viewBox="0 0 205 44" fill="none" xmlns="http://www.w3.org/2000/svg">
<path d="M13.3132 44C5.24849 44 0.192018 39.6897 0 33.771H7.68071C7.74472 35.894 9.60089 37.3093 13.3132 37.3093C17.2176 37.3093 18.8818 35.701 18.8818 33.771C18.8818 31.3263 16.0655 31.0047 12.6732 30.5543C7.80873 29.911 0.64006 29.0747 0.64006 21.2903C0.64006 14.7927 5.56852 10.5467 13.1852 10.5467C20.9299 10.5467 25.6664 14.9213 25.8584 20.5183H18.3057C18.1137 18.5883 16.3215 17.2373 13.3132 17.2373C9.98493 17.2373 8.32077 18.8457 8.32077 20.7113C8.32077 23.156 11.201 23.542 14.5934 23.9923C18.8177 24.5713 26.5625 25.4077 26.5625 33.3207C26.5625 39.754 21.378 44 13.3132 44Z" fill="#F4F5F7"/>
<path d="M41.5229 44C33.8421 44 28.5937 39.754 28.5937 30.9403V0.124646H36.2104V11.383H52.5319V18.331H36.2104V30.9403C36.2104 35.1863 38.3866 36.859 41.5229 36.859C44.6592 36.859 46.8354 35.2507 46.8354 30.9403V30.104H54.4521V30.9403C54.4521 39.754 49.2036 44 41.5229 44Z" fill="#F4F5F7"/>
<path d="M73.5918 44C63.6069 44 56.5663 36.9233 56.5663 27.2733C56.5663 17.6233 63.6069 10.5467 73.5918 10.5467C83.5768 10.5467 90.6174 17.6233 90.6174 27.2733C90.6174 36.9233 83.5768 44 73.5918 44ZM73.5918 36.859C79.1604 36.859 82.8727 32.8703 82.8727 27.2733C82.8727 21.6763 79.1604 17.6877 73.5918 17.6877C68.0233 17.6877 64.247 21.6763 64.247 27.2733C64.247 32.8703 68.0233 36.859 73.5918 36.859Z" fill="#F4F5F7"/>
<path d="M109.845 44C99.8603 44 92.8196 36.9233 92.8196 27.2733C92.8196 17.6233 99.8603 10.5467 109.845 10.5467C118.422 10.5467 124.695 15.7577 126.231 23.2847H118.55C117.206 19.875 114.006 17.6877 109.845 17.6877C104.277 17.6877 100.5 21.6763 100.5 27.2733C100.5 32.8703 104.277 36.859 109.845 36.859C114.006 36.859 117.206 34.6717 118.55 31.262H126.231C124.695 38.789 118.422 44 109.845 44Z" fill="#F4F5F7"/>
<path d="M128.316 43.1637V0H135.933V25.279L148.478 11.383H158.207L143.357 26.9517L158.783 43.1637H148.862L135.933 28.8173V43.1637H128.316Z" fill="#F4F5F7"/>
<path d="M160.881 43.1637V11.383H168.498V43.1637H160.881Z" fill="#F4F5F7"/>
<path d="M186.322 44C178.642 44 170.577 38.4673 170.577 27.595C170.577 17.4947 177.618 10.5467 187.666 10.5467C197.587 10.5467 204.5 17.3017 204.5 27.5307V43.1637H197.523V36.9233C195.603 41.6197 191.315 44 186.322 44ZM187.602 36.859C193.171 36.859 196.883 32.8703 196.883 27.2733C196.883 21.6763 193.171 17.6877 187.602 17.6877C182.034 17.6877 178.258 21.6763 178.258 27.2733C178.258 32.8703 182.034 36.859 187.602 36.859Z" fill="#F4F5F7"/>
</svg>
