<svg width="204" height="42" viewBox="0 0 204 42" fill="none" xmlns="http://www.w3.org/2000/svg">
<path d="M13.2807 41.3105C5.23566 41.3105 0.191548 37.2636 0 31.7068H7.66193C7.72578 33.7 9.57742 35.0288 13.2807 35.0288C17.1755 35.0288 18.8356 33.5188 18.8356 31.7068C18.8356 29.4115 16.0262 29.1095 12.6422 28.6867C7.78963 28.0827 0.638495 27.2975 0.638495 19.989C0.638495 13.8885 5.5549 9.90199 13.153 9.90199C20.8788 9.90199 25.6036 14.0093 25.7952 19.2641H18.2609C18.0694 17.4521 16.2816 16.1837 13.2807 16.1837C9.96052 16.1837 8.30043 17.6937 8.30043 19.4453C8.30043 21.7406 11.1737 22.103 14.5577 22.5258C18.7717 23.0694 26.4975 23.8546 26.4975 31.2839C26.4975 37.324 21.3257 41.3105 13.2807 41.3105Z" fill="#202326"/>
<path d="M41.4213 41.3105C33.7594 41.3105 28.5237 37.324 28.5237 29.0491V0.117027H36.1218V10.6872H52.4034V17.2105H36.1218V29.0491C36.1218 33.0356 38.2927 34.606 41.4213 34.606C44.55 34.606 46.7208 33.096 46.7208 29.0491V28.2639H54.3189V29.0491C54.3189 37.324 49.0833 41.3105 41.4213 41.3105Z" fill="#202326"/>
<path d="M73.4119 41.3105C63.4514 41.3105 56.428 34.6664 56.428 25.6063C56.428 16.5461 63.4514 9.90199 73.4119 9.90199C83.3724 9.90199 90.3959 16.5461 90.3959 25.6063C90.3959 34.6664 83.3724 41.3105 73.4119 41.3105ZM73.4119 34.606C78.9668 34.606 82.6701 30.8611 82.6701 25.6063C82.6701 20.3514 78.9668 16.6065 73.4119 16.6065C67.857 16.6065 64.0899 20.3514 64.0899 25.6063C64.0899 30.8611 67.857 34.606 73.4119 34.606Z" fill="#202326"/>
<path d="M109.577 41.3105C99.6161 41.3105 92.5927 34.6664 92.5927 25.6063C92.5927 16.5461 99.6161 9.90199 109.577 9.90199C118.132 9.90199 124.39 14.7945 125.922 21.8614H118.26C116.919 18.6601 113.727 16.6065 109.577 16.6065C104.022 16.6065 100.255 20.3514 100.255 25.6063C100.255 30.8611 104.022 34.606 109.577 34.606C113.727 34.606 116.919 32.5524 118.26 29.3511H125.922C124.39 36.418 118.132 41.3105 109.577 41.3105Z" fill="#202326"/>
<path d="M128.002 40.5253V0H135.6V23.7338L148.115 10.6872H157.82L143.007 25.3042L158.395 40.5253H148.498L135.6 27.0559V40.5253H128.002Z" fill="#202326"/>
<path d="M160.488 40.5253V10.6872H168.086V40.5253H160.488Z" fill="#202326"/>
<path d="M185.867 41.3105C178.205 41.3105 170.16 36.116 170.16 25.9083C170.16 16.4253 177.183 9.90199 187.208 9.90199C197.104 9.90199 204 16.2441 204 25.8479V40.5253H197.04V34.6664C195.125 39.0757 190.847 41.3105 185.867 41.3105ZM187.144 34.606C192.699 34.606 196.402 30.8611 196.402 25.6063C196.402 20.3514 192.699 16.6065 187.144 16.6065C181.589 16.6065 177.822 20.3514 177.822 25.6063C177.822 30.8611 181.589 34.606 187.144 34.606Z" fill="#202326"/>
</svg>
